<svg width="15" height="20" viewBox="0 0 15 20" fill="none" xmlns="http://www.w3.org/2000/svg">
<path d="M2.5 0C1.12109 0 0 1.12109 0 2.5V17.5C0 18.8789 1.12109 20 2.5 20H12.5C13.8789 20 15 18.8789 15 17.5V6.25H10C9.30859 6.25 8.75 5.69141 8.75 5V0H2.5ZM10 0V5H15L10 0ZM6.25 9.375C6.25 9.03125 6.53125 8.75 6.875 8.75H8.125C8.46875 8.75 8.75 9.03125 8.75 9.375V11.25H10.625C10.9688 11.25 11.25 11.5312 11.25 11.875V13.125C11.25 13.4688 10.9688 13.75 10.625 13.75H8.75V15.625C8.75 15.9688 8.46875 16.25 8.125 16.25H6.875C6.53125 16.25 6.25 15.9688 6.25 15.625V13.75H4.375C4.03125 13.75 3.75 13.4688 3.75 13.125V11.875C3.75 11.5312 4.03125 11.25 4.375 11.25H6.25V9.375Z" fill="#2D3D80"/>
</svg>
