<svg width="12" height="14" viewBox="0 0 12 14" fill="none" xmlns="http://www.w3.org/2000/svg">
<path d="M0.44306 5.6805C0.510863 5.61283 0.766878 5.3235 1.00536 5.0855C2.40351 3.58867 6.05085 1.13867 7.95986 0.390833C8.24978 0.270667 8.98276 0.0163332 9.37438 -1.1477e-07C9.74963 -9.83666e-08 10.1074 0.0839999 10.4487 0.254333C10.8742 0.492333 11.2156 0.866833 11.4026 1.309C11.523 1.61583 11.7101 2.534 11.7101 2.55033C11.8971 3.55483 12 5.187 12 6.99067C12 8.70917 11.8971 10.2748 11.744 11.2945C11.7264 11.3108 11.5394 12.4518 11.3348 12.8427C10.9596 13.5567 10.2266 14 9.44218 14L9.37438 14C8.86352 13.9825 7.78919 13.5392 7.78919 13.5228C5.98305 12.7738 2.41987 10.444 0.987823 8.89583C0.987823 8.89583 0.58451 8.498 0.409157 8.2495C0.135606 7.8925 6.2801e-07 7.45033 6.47338e-07 7.00817C6.68909e-07 6.51467 0.153143 6.055 0.44306 5.6805Z" fill="white"/>
</svg>
